<svg version="1.1" xmlns="http://www.w3.org/2000/svg" viewBox="0 0 24 28">
	<path d="M16 14q0 1.656-1.172 2.828t-2.828 1.172-2.828-1.172-1.172-2.828 1.172-2.828 2.828-1.172 2.828 1.172 1.172 2.828zM12 5.5q-2.312 0-4.266 1.141t-3.094 3.094-1.141 4.266 1.141 4.266 3.094 3.094 4.266 1.141 4.266-1.141 3.094-3.094 1.141-4.266-1.141-4.266-3.094-3.094-4.266-1.141zM24 14q0 3.266-1.609 6.023t-4.367 4.367-6.023 1.609-6.023-1.609-4.367-4.367-1.609-6.023 1.609-6.023 4.367-4.367 6.023-1.609 6.023 1.609 4.367 4.367 1.609 6.023z"/>
</svg>
